<svg width="15" height="15" viewBox="0 0 15 15" fill="none" xmlns="http://www.w3.org/2000/svg">
<circle cx="7.5" cy="7.5" r="7.5" fill="#E9EDF3" fill-opacity="0.5"/>
<path fill-rule="evenodd" clip-rule="evenodd" d="M10.2715 4.14645C10.4667 3.95118 10.7833 3.95118 10.9786 4.14645C11.1738 4.34171 11.1738 4.65829 10.9786 4.85355L8.26961 7.5625L10.9786 10.2715C11.1738 10.4667 11.1738 10.7833 10.9786 10.9786C10.7833 11.1738 10.4667 11.1738 10.2715 10.9786L7.5625 8.26961L4.85355 10.9786C4.65829 11.1738 4.34171 11.1738 4.14645 10.9786C3.95118 10.7833 3.95118 10.4667 4.14645 10.2715L6.8554 7.5625L4.14645 4.85355C3.95118 4.65829 3.95118 4.34171 4.14645 4.14645C4.34171 3.95118 4.65829 3.95118 4.85355 4.14645L7.5625 6.8554L10.2715 4.14645Z" fill="#B0BAC9"/>
</svg>
