<svg width="28" height="28" viewBox="0 0 28 28" fill="none" xmlns="http://www.w3.org/2000/svg">
<circle cx="14" cy="14" r="14" fill="#687591"/>
<path d="M15.3456 21.0002C15.2088 21.2359 15.0125 21.4316 14.7764 21.5676C14.5403 21.7036 14.2725 21.7752 14 21.7752C13.7275 21.7752 13.4597 21.7036 13.2236 21.5676C12.9875 21.4316 12.7912 21.2359 12.6544 21.0002M18.6667 10.8891C18.6667 9.6514 18.175 8.46442 17.2998 7.58925C16.4247 6.71408 15.2377 6.22241 14 6.22241C12.7623 6.22241 11.5753 6.71408 10.7002 7.58925C9.825 8.46442 9.33333 9.6514 9.33333 10.8891C9.33333 16.3335 7 17.8891 7 17.8891H21C21 17.8891 18.6667 16.3335 18.6667 10.8891Z" stroke="white" stroke-linecap="round" stroke-linejoin="round"/>
</svg>
