<svg width="28" height="28" viewBox="0 0 28 28" fill="none" xmlns="http://www.w3.org/2000/svg">
<circle cx="14" cy="14" r="14" fill="#687591"/>
<path d="M11.7361 11.6666C11.919 11.1468 12.2799 10.7085 12.755 10.4293C13.23 10.1501 13.7886 10.048 14.3317 10.1412C14.8748 10.2343 15.3674 10.5167 15.7223 10.9382C16.0772 11.3598 16.2714 11.8934 16.2706 12.4444C16.2706 13.9999 13.9372 14.7777 13.9372 14.7777M13.9995 17.8888H14.0072M21.7772 13.9999C21.7772 18.2955 18.295 21.7777 13.9995 21.7777C9.70391 21.7777 6.22168 18.2955 6.22168 13.9999C6.22168 9.7044 9.70391 6.22217 13.9995 6.22217C18.295 6.22217 21.7772 9.7044 21.7772 13.9999Z" stroke="white" stroke-linecap="round" stroke-linejoin="round"/>
</svg>
