<svg width="323" height="48" viewBox="0 0 323 48" fill="none" xmlns="http://www.w3.org/2000/svg">
<g filter="url(#filter0_d_112_9288)">
<rect x="2" y="1" width="319" height="44" rx="8" fill="white"/>
<g clip-path="url(#clip0_112_9288)">
<path d="M92.766 23.2764C92.766 22.4607 92.6999 21.6406 92.5588 20.8381H81.24V25.4591H87.7217C87.4528 26.9494 86.5885 28.2678 85.323 29.1056V32.1039H89.19C91.4608 30.0139 92.766 26.9274 92.766 23.2764Z" fill="#4285F4"/>
<path d="M81.2401 35.0008C84.4766 35.0008 87.2059 33.9382 89.1945 32.1039L85.3276 29.1055C84.2517 29.8375 82.8627 30.252 81.2445 30.252C78.1139 30.252 75.4595 28.1399 74.507 25.3003H70.5166V28.3912C72.5537 32.4434 76.7029 35.0008 81.2401 35.0008Z" fill="#34A853"/>
<path d="M74.5025 25.3003C73.9999 23.8099 73.9999 22.1961 74.5025 20.7057V17.6148H70.5165C68.8145 21.0056 68.8145 25.0004 70.5165 28.3912L74.5025 25.3003Z" fill="#FBBC04"/>
<path d="M81.2401 15.7497C82.9509 15.7232 84.6044 16.367 85.8434 17.5487L89.2695 14.1226C87.1001 12.0855 84.2208 10.9655 81.2401 11.0008C76.7029 11.0008 72.5537 13.5582 70.5166 17.6148L74.5026 20.7058C75.4506 17.8617 78.1095 15.7497 81.2401 15.7497Z" fill="#EA4335"/>
</g>
<path d="M112.472 20.5625C112.419 20.0663 112.195 19.6799 111.801 19.4034C111.411 19.1269 110.903 18.9886 110.278 18.9886C109.839 18.9886 109.462 19.0549 109.148 19.1875C108.833 19.3201 108.593 19.5 108.426 19.7273C108.259 19.9545 108.174 20.214 108.17 20.5057C108.17 20.7481 108.225 20.9583 108.335 21.1364C108.449 21.3144 108.602 21.4659 108.795 21.5909C108.989 21.7121 109.203 21.8144 109.438 21.8977C109.672 21.9811 109.909 22.0511 110.148 22.108L111.239 22.3807C111.678 22.483 112.1 22.6212 112.506 22.7955C112.915 22.9697 113.28 23.1894 113.602 23.4545C113.928 23.7197 114.186 24.0398 114.375 24.4148C114.564 24.7898 114.659 25.2292 114.659 25.733C114.659 26.4148 114.485 27.0152 114.136 27.5341C113.788 28.0492 113.284 28.4527 112.625 28.7443C111.97 29.0322 111.176 29.1761 110.244 29.1761C109.339 29.1761 108.553 29.036 107.886 28.7557C107.223 28.4754 106.705 28.0663 106.33 27.5284C105.958 26.9905 105.758 26.3352 105.727 25.5625H107.801C107.831 25.9678 107.956 26.3049 108.176 26.5739C108.396 26.8428 108.682 27.0436 109.034 27.1761C109.39 27.3087 109.788 27.375 110.227 27.375C110.686 27.375 111.087 27.3068 111.432 27.1705C111.78 27.0303 112.053 26.8371 112.25 26.5909C112.447 26.3409 112.547 26.0492 112.551 25.7159C112.547 25.4129 112.458 25.1629 112.284 24.9659C112.11 24.7652 111.866 24.5985 111.551 24.4659C111.241 24.3295 110.877 24.2083 110.46 24.1023L109.136 23.7614C108.178 23.5152 107.42 23.142 106.864 22.642C106.311 22.1383 106.034 21.4697 106.034 20.6364C106.034 19.9508 106.22 19.3504 106.591 18.8352C106.966 18.3201 107.475 17.9205 108.119 17.6364C108.763 17.3485 109.492 17.2045 110.307 17.2045C111.133 17.2045 111.856 17.3485 112.477 17.6364C113.102 17.9205 113.593 18.3163 113.949 18.8239C114.305 19.3277 114.489 19.9072 114.5 20.5625H112.472ZM116.447 29V20.2727H118.504V29H116.447ZM117.482 19.0341C117.156 19.0341 116.875 18.9261 116.641 18.7102C116.406 18.4905 116.288 18.2273 116.288 17.9205C116.288 17.6098 116.406 17.3466 116.641 17.1307C116.875 16.911 117.156 16.8011 117.482 16.8011C117.811 16.8011 118.091 16.911 118.322 17.1307C118.557 17.3466 118.675 17.6098 118.675 17.9205C118.675 18.2273 118.557 18.4905 118.322 18.7102C118.091 18.9261 117.811 19.0341 117.482 19.0341ZM124.415 32.4545C123.676 32.4545 123.042 32.3542 122.511 32.1534C121.981 31.9564 121.555 31.6913 121.233 31.358C120.911 31.0246 120.688 30.6553 120.562 30.25L122.415 29.8011C122.498 29.9716 122.619 30.1402 122.778 30.3068C122.938 30.4773 123.152 30.6174 123.42 30.7273C123.693 30.8409 124.036 30.8977 124.449 30.8977C125.032 30.8977 125.515 30.7557 125.898 30.4716C126.28 30.1913 126.472 29.7292 126.472 29.0852V27.4318H126.369C126.263 27.6439 126.108 27.8617 125.903 28.0852C125.703 28.3087 125.436 28.4962 125.102 28.6477C124.773 28.7992 124.358 28.875 123.858 28.875C123.188 28.875 122.58 28.7178 122.034 28.4034C121.492 28.0852 121.061 27.6117 120.739 26.983C120.42 26.3504 120.261 25.5587 120.261 24.608C120.261 23.6496 120.42 22.8409 120.739 22.1818C121.061 21.5189 121.494 21.017 122.04 20.6761C122.585 20.3314 123.193 20.1591 123.864 20.1591C124.375 20.1591 124.795 20.2462 125.125 20.4205C125.458 20.5909 125.723 20.7973 125.92 21.0398C126.117 21.2784 126.267 21.5038 126.369 21.7159H126.483V20.2727H128.511V29.142C128.511 29.8883 128.333 30.5057 127.977 30.9943C127.621 31.483 127.134 31.8485 126.517 32.0909C125.9 32.3333 125.199 32.4545 124.415 32.4545ZM124.432 27.2614C124.867 27.2614 125.239 27.1553 125.545 26.9432C125.852 26.7311 126.085 26.4261 126.244 26.0284C126.403 25.6307 126.483 25.1534 126.483 24.5966C126.483 24.0473 126.403 23.5663 126.244 23.1534C126.089 22.7405 125.858 22.4205 125.551 22.1932C125.248 21.9621 124.875 21.8466 124.432 21.8466C123.973 21.8466 123.591 21.9659 123.284 22.2045C122.977 22.4432 122.746 22.7708 122.591 23.1875C122.436 23.6004 122.358 24.0701 122.358 24.5966C122.358 25.1307 122.436 25.5985 122.591 26C122.75 26.3977 122.983 26.7083 123.29 26.9318C123.6 27.1515 123.981 27.2614 124.432 27.2614ZM132.676 23.8864V29H130.619V20.2727H132.585V21.7557H132.688C132.888 21.267 133.208 20.8788 133.648 20.5909C134.091 20.303 134.638 20.1591 135.29 20.1591C135.892 20.1591 136.417 20.2879 136.864 20.5455C137.314 20.803 137.663 21.1761 137.909 21.6648C138.159 22.1534 138.282 22.7462 138.278 23.4432V29H136.222V23.7614C136.222 23.178 136.07 22.7216 135.767 22.392C135.468 22.0625 135.053 21.8977 134.523 21.8977C134.163 21.8977 133.843 21.9773 133.562 22.1364C133.286 22.2917 133.068 22.517 132.909 22.8125C132.754 23.108 132.676 23.4659 132.676 23.8864ZM144.338 29V20.2727H146.395V29H144.338ZM145.372 19.0341C145.046 19.0341 144.766 18.9261 144.531 18.7102C144.296 18.4905 144.179 18.2273 144.179 17.9205C144.179 17.6098 144.296 17.3466 144.531 17.1307C144.766 16.911 145.046 16.8011 145.372 16.8011C145.702 16.8011 145.982 16.911 146.213 17.1307C146.448 17.3466 146.565 17.6098 146.565 17.9205C146.565 18.2273 146.448 18.4905 146.213 18.7102C145.982 18.9261 145.702 19.0341 145.372 19.0341ZM150.567 23.8864V29H148.51V20.2727H150.476V21.7557H150.578C150.779 21.267 151.099 20.8788 151.538 20.5909C151.982 20.303 152.529 20.1591 153.18 20.1591C153.783 20.1591 154.307 20.2879 154.754 20.5455C155.205 20.803 155.554 21.1761 155.8 21.6648C156.05 22.1534 156.173 22.7462 156.169 23.4432V29H154.112V23.7614C154.112 23.178 153.961 22.7216 153.658 22.392C153.358 22.0625 152.944 21.8977 152.413 21.8977C152.054 21.8977 151.733 21.9773 151.453 22.1364C151.177 22.2917 150.959 22.517 150.8 22.8125C150.644 23.108 150.567 23.4659 150.567 23.8864ZM164.03 29L161.564 20.2727H163.661L165.195 26.4091H165.274L166.842 20.2727H168.916L170.484 26.375H170.57L172.081 20.2727H174.183L171.712 29H169.57L167.933 23.1023H167.814L166.178 29H164.03ZM175.619 29V20.2727H177.676V29H175.619ZM176.653 19.0341C176.328 19.0341 176.047 18.9261 175.812 18.7102C175.578 18.4905 175.46 18.2273 175.46 17.9205C175.46 17.6098 175.578 17.3466 175.812 17.1307C176.047 16.911 176.328 16.8011 176.653 16.8011C176.983 16.8011 177.263 16.911 177.494 17.1307C177.729 17.3466 177.847 17.6098 177.847 17.9205C177.847 18.2273 177.729 18.4905 177.494 18.7102C177.263 18.9261 176.983 19.0341 176.653 19.0341ZM184.149 20.2727V21.8636H179.132V20.2727H184.149ZM180.371 18.1818H182.428V26.375C182.428 26.6515 182.469 26.8636 182.553 27.0114C182.64 27.1553 182.753 27.2538 182.893 27.3068C183.034 27.3598 183.189 27.3864 183.359 27.3864C183.488 27.3864 183.606 27.3769 183.712 27.358C183.821 27.339 183.905 27.322 183.962 27.3068L184.308 28.9148C184.198 28.9527 184.041 28.9943 183.837 29.0398C183.636 29.0852 183.39 29.1117 183.098 29.1193C182.583 29.1345 182.119 29.0568 181.706 28.8864C181.293 28.7121 180.965 28.4432 180.723 28.0795C180.484 27.7159 180.367 27.2614 180.371 26.7159V18.1818ZM188.114 23.8864V29H186.057V17.3636H188.068V21.7557H188.17C188.375 21.2633 188.691 20.875 189.119 20.5909C189.551 20.303 190.1 20.1591 190.767 20.1591C191.373 20.1591 191.902 20.286 192.352 20.5398C192.803 20.7936 193.152 21.1648 193.398 21.6534C193.648 22.142 193.773 22.7386 193.773 23.4432V29H191.716V23.7614C191.716 23.1742 191.564 22.7178 191.261 22.392C190.962 22.0625 190.542 21.8977 190 21.8977C189.636 21.8977 189.311 21.9773 189.023 22.1364C188.739 22.2917 188.515 22.517 188.352 22.8125C188.193 23.108 188.114 23.4659 188.114 23.8864ZM207.724 21.0795C207.63 20.7727 207.499 20.4981 207.332 20.2557C207.17 20.0095 206.973 19.7992 206.741 19.625C206.514 19.4508 206.253 19.3201 205.957 19.233C205.662 19.142 205.34 19.0966 204.991 19.0966C204.366 19.0966 203.81 19.2538 203.321 19.5682C202.832 19.8826 202.448 20.3447 202.168 20.9545C201.891 21.5606 201.753 22.2992 201.753 23.1705C201.753 24.0492 201.891 24.7936 202.168 25.4034C202.444 26.0133 202.829 26.4773 203.321 26.7955C203.813 27.1098 204.385 27.267 205.037 27.267C205.628 27.267 206.139 27.1534 206.571 26.9261C207.007 26.6989 207.342 26.3769 207.577 25.9602C207.812 25.5398 207.929 25.0473 207.929 24.483L208.406 24.5568H205.247V22.9091H209.969V24.3068C209.969 25.303 209.757 26.1648 209.332 26.892C208.908 27.6193 208.325 28.1799 207.582 28.5739C206.84 28.964 205.988 29.1591 205.026 29.1591C203.954 29.1591 203.012 28.9186 202.202 28.4375C201.395 27.9527 200.764 27.2652 200.31 26.375C199.859 25.4811 199.634 24.4205 199.634 23.1932C199.634 22.2538 199.766 21.4148 200.031 20.6761C200.3 19.9375 200.675 19.3106 201.156 18.7955C201.637 18.2765 202.202 17.8826 202.849 17.6136C203.497 17.3409 204.202 17.2045 204.963 17.2045C205.607 17.2045 206.207 17.2992 206.764 17.4886C207.321 17.6742 207.815 17.9394 208.247 18.2841C208.683 18.6288 209.041 19.0379 209.321 19.5114C209.601 19.9848 209.785 20.5076 209.872 21.0795H207.724ZM215.723 29.1705C214.871 29.1705 214.132 28.983 213.507 28.608C212.882 28.233 212.397 27.7083 212.053 27.0341C211.712 26.3598 211.541 25.572 211.541 24.6705C211.541 23.7689 211.712 22.9792 212.053 22.3011C212.397 21.6231 212.882 21.0966 213.507 20.7216C214.132 20.3466 214.871 20.1591 215.723 20.1591C216.575 20.1591 217.314 20.3466 217.939 20.7216C218.564 21.0966 219.047 21.6231 219.388 22.3011C219.732 22.9792 219.905 23.7689 219.905 24.6705C219.905 25.572 219.732 26.3598 219.388 27.0341C219.047 27.7083 218.564 28.233 217.939 28.608C217.314 28.983 216.575 29.1705 215.723 29.1705ZM215.734 27.5227C216.196 27.5227 216.583 27.3958 216.893 27.142C217.204 26.8845 217.435 26.5398 217.587 26.108C217.742 25.6761 217.82 25.1951 217.82 24.6648C217.82 24.1307 217.742 23.6477 217.587 23.2159C217.435 22.7803 217.204 22.4337 216.893 22.1761C216.583 21.9186 216.196 21.7898 215.734 21.7898C215.261 21.7898 214.867 21.9186 214.553 22.1761C214.242 22.4337 214.009 22.7803 213.854 23.2159C213.702 23.6477 213.626 24.1307 213.626 24.6648C213.626 25.1951 213.702 25.6761 213.854 26.108C214.009 26.5398 214.242 26.8845 214.553 27.142C214.867 27.3958 215.261 27.5227 215.734 27.5227ZM225.457 29.1705C224.605 29.1705 223.866 28.983 223.241 28.608C222.616 28.233 222.132 27.7083 221.787 27.0341C221.446 26.3598 221.276 25.572 221.276 24.6705C221.276 23.7689 221.446 22.9792 221.787 22.3011C222.132 21.6231 222.616 21.0966 223.241 20.7216C223.866 20.3466 224.605 20.1591 225.457 20.1591C226.31 20.1591 227.048 20.3466 227.673 20.7216C228.298 21.0966 228.781 21.6231 229.122 22.3011C229.467 22.9792 229.639 23.7689 229.639 24.6705C229.639 25.572 229.467 26.3598 229.122 27.0341C228.781 27.7083 228.298 28.233 227.673 28.608C227.048 28.983 226.31 29.1705 225.457 29.1705ZM225.469 27.5227C225.931 27.5227 226.317 27.3958 226.628 27.142C226.938 26.8845 227.17 26.5398 227.321 26.108C227.476 25.6761 227.554 25.1951 227.554 24.6648C227.554 24.1307 227.476 23.6477 227.321 23.2159C227.17 22.7803 226.938 22.4337 226.628 22.1761C226.317 21.9186 225.931 21.7898 225.469 21.7898C224.995 21.7898 224.601 21.9186 224.287 22.1761C223.976 22.4337 223.743 22.7803 223.588 23.2159C223.437 23.6477 223.361 24.1307 223.361 24.6648C223.361 25.1951 223.437 25.6761 223.588 26.108C223.743 26.5398 223.976 26.8845 224.287 27.142C224.601 27.3958 224.995 27.5227 225.469 27.5227ZM235.18 32.4545C234.442 32.4545 233.807 32.3542 233.277 32.1534C232.747 31.9564 232.321 31.6913 231.999 31.358C231.677 31.0246 231.453 30.6553 231.328 30.25L233.18 29.8011C233.264 29.9716 233.385 30.1402 233.544 30.3068C233.703 30.4773 233.917 30.6174 234.186 30.7273C234.459 30.8409 234.802 30.8977 235.214 30.8977C235.798 30.8977 236.281 30.7557 236.663 30.4716C237.046 30.1913 237.237 29.7292 237.237 29.0852V27.4318H237.135C237.029 27.6439 236.874 27.8617 236.669 28.0852C236.468 28.3087 236.201 28.4962 235.868 28.6477C235.538 28.7992 235.124 28.875 234.624 28.875C233.953 28.875 233.345 28.7178 232.8 28.4034C232.258 28.0852 231.826 27.6117 231.504 26.983C231.186 26.3504 231.027 25.5587 231.027 24.608C231.027 23.6496 231.186 22.8409 231.504 22.1818C231.826 21.5189 232.26 21.017 232.805 20.6761C233.351 20.3314 233.959 20.1591 234.629 20.1591C235.141 20.1591 235.561 20.2462 235.891 20.4205C236.224 20.5909 236.489 20.7973 236.686 21.0398C236.883 21.2784 237.033 21.5038 237.135 21.7159H237.249V20.2727H239.277V29.142C239.277 29.8883 239.099 30.5057 238.743 30.9943C238.387 31.483 237.9 31.8485 237.283 32.0909C236.665 32.3333 235.964 32.4545 235.18 32.4545ZM235.197 27.2614C235.633 27.2614 236.004 27.1553 236.311 26.9432C236.618 26.7311 236.851 26.4261 237.01 26.0284C237.169 25.6307 237.249 25.1534 237.249 24.5966C237.249 24.0473 237.169 23.5663 237.01 23.1534C236.855 22.7405 236.624 22.4205 236.317 22.1932C236.014 21.9621 235.641 21.8466 235.197 21.8466C234.739 21.8466 234.357 21.9659 234.05 22.2045C233.743 22.4432 233.512 22.7708 233.357 23.1875C233.201 23.6004 233.124 24.0701 233.124 24.5966C233.124 25.1307 233.201 25.5985 233.357 26C233.516 26.3977 233.749 26.7083 234.055 26.9318C234.366 27.1515 234.747 27.2614 235.197 27.2614ZM243.442 17.3636V29H241.385V17.3636H243.442ZM249.42 29.1705C248.545 29.1705 247.79 28.9886 247.153 28.625C246.521 28.2576 246.034 27.7386 245.693 27.0682C245.352 26.3939 245.182 25.6004 245.182 24.6875C245.182 23.7898 245.352 23.0019 245.693 22.3239C246.038 21.642 246.519 21.1117 247.136 20.733C247.754 20.3504 248.479 20.1591 249.312 20.1591C249.85 20.1591 250.358 20.2462 250.835 20.4205C251.316 20.5909 251.741 20.8561 252.108 21.2159C252.479 21.5758 252.771 22.0341 252.983 22.5909C253.195 23.1439 253.301 23.803 253.301 24.5682V25.1989H246.148V23.8125H251.33C251.326 23.4186 251.241 23.0682 251.074 22.7614C250.907 22.4508 250.674 22.2064 250.375 22.0284C250.08 21.8504 249.735 21.7614 249.341 21.7614C248.92 21.7614 248.551 21.8636 248.233 22.0682C247.915 22.2689 247.667 22.5341 247.489 22.8636C247.314 23.1894 247.225 23.5473 247.222 23.9375V25.1477C247.222 25.6553 247.314 26.0909 247.5 26.4545C247.686 26.8144 247.945 27.0909 248.278 27.2841C248.612 27.4735 249.002 27.5682 249.449 27.5682C249.748 27.5682 250.019 27.5265 250.261 27.4432C250.504 27.3561 250.714 27.2292 250.892 27.0625C251.07 26.8958 251.205 26.6894 251.295 26.4432L253.216 26.6591C253.095 27.1667 252.864 27.6098 252.523 27.9886C252.186 28.3636 251.754 28.6553 251.227 28.8636C250.701 29.0682 250.098 29.1705 249.42 29.1705Z" fill="#344054"/>
<rect x="2.5" y="1.5" width="318" height="43" rx="7.5" stroke="#D0D5DD"/>
</g>
<defs>
<filter id="filter0_d_112_9288" x="0" y="0" width="323" height="48" filterUnits="userSpaceOnUse" color-interpolation-filters="sRGB">
<feFlood flood-opacity="0" result="BackgroundImageFix"/>
<feColorMatrix in="SourceAlpha" type="matrix" values="0 0 0 0 0 0 0 0 0 0 0 0 0 0 0 0 0 0 127 0" result="hardAlpha"/>
<feOffset dy="1"/>
<feGaussianBlur stdDeviation="1"/>
<feColorMatrix type="matrix" values="0 0 0 0 0.0627451 0 0 0 0 0.0941176 0 0 0 0 0.156863 0 0 0 0.05 0"/>
<feBlend mode="normal" in2="BackgroundImageFix" result="effect1_dropShadow_112_9288"/>
<feBlend mode="normal" in="SourceGraphic" in2="effect1_dropShadow_112_9288" result="shape"/>
</filter>
<clipPath id="clip0_112_9288">
<rect width="24" height="24" fill="white" transform="translate(69 11)"/>
</clipPath>
</defs>
</svg>
